<svg width="257" height="257" viewBox="0 0 257 257" fill="none" xmlns="http://www.w3.org/2000/svg">
<path d="M177.583 177.645C171.814 222.102 135.521 254.928 90.6335 256.099C83.8108 256.285 80.1159 252.251 79.8147 245.736C79.4071 236.986 79.6729 225.746 79.6286 219.469C79.5341 206.06 79.5341 192.195 79.6286 177.876C79.6298 177.791 79.6142 177.707 79.5826 177.629C79.5511 177.55 79.5043 177.479 79.4449 177.419C79.3856 177.359 79.3148 177.311 79.2369 177.278C79.1589 177.246 79.0752 177.229 78.9907 177.229C70.0474 177.241 60.9387 177.244 51.6646 177.238C19.1196 177.211 -5.77872 148.409 2.39961 115.752C6.74131 98.421 20.6879 84.5122 38.1699 80.2216C49.857 77.3495 66.2137 78.5019 79.1324 78.5994C79.2499 78.5994 79.3626 78.5527 79.4457 78.4696C79.5288 78.3864 79.5755 78.2737 79.5755 78.1561C79.5223 69.6873 79.5459 61.2422 79.6463 52.8206C79.729 46.0598 80.2341 40.8414 81.1615 37.1655C87.7361 10.9701 115.248 -5.26131 141.671 1.73299C159.153 6.36927 173.197 20.8809 176.962 38.6281C179.293 49.6293 178.203 65.6036 178.132 78.2271C178.131 78.2744 178.139 78.3214 178.156 78.3655C178.174 78.4095 178.2 78.4497 178.233 78.4835C178.266 78.5174 178.305 78.5443 178.349 78.5627C178.392 78.5811 178.439 78.5905 178.486 78.5905C190.555 78.6348 205.334 77.6863 215.754 79.5213C230.297 82.0862 241.485 89.5149 249.318 101.807C267.296 130.042 251.338 168.435 219.201 175.864C207.531 178.558 191.139 177.264 178.079 177.211C177.957 177.21 177.84 177.254 177.748 177.334C177.657 177.414 177.598 177.525 177.583 177.645ZM132.704 20.0387C116.843 17.7782 100.673 29.6747 99.5118 46.2607C99.0215 53.2993 99.0245 63.94 99.5207 78.1827C99.523 78.3011 99.5716 78.4138 99.6561 78.4967C99.7406 78.5796 99.8542 78.626 99.9726 78.626L157.965 78.5994C158.08 78.5994 158.191 78.5536 158.272 78.4722C158.354 78.3907 158.399 78.2802 158.399 78.165C158.441 70.2044 158.453 62.2409 158.435 54.2745C158.423 48.1519 157.977 43.622 157.097 40.6848C153.712 29.3645 144.355 21.7053 132.704 20.0387ZM20.5107 130.831C21.9372 146.193 35.1395 157.531 50.5659 157.531C63.2601 157.537 75.9574 157.528 88.6576 157.505C97.4739 157.478 99.308 163.843 99.2992 171.626C99.2814 181.442 99.2814 191.217 99.2992 200.951C99.2993 201.025 99.3156 201.098 99.3469 201.164C99.3782 201.231 99.4237 201.29 99.4803 201.338C99.5369 201.385 99.6031 201.419 99.6744 201.438C99.7457 201.457 99.8202 201.46 99.8928 201.447C137.462 194.692 162.05 162.265 158.116 124.244C156.521 108.837 143 98.749 128.087 98.6869C104.317 98.5983 80.5501 98.554 56.786 98.554C49.2486 98.554 43.9647 99.0149 40.9344 99.9369C27.9802 103.882 19.2791 117.684 20.5107 130.831ZM231.96 144.686C245.455 124.12 231.278 98.616 207.168 98.5717C197.599 98.554 188.056 98.551 178.54 98.5628C178.436 98.5628 178.337 98.6049 178.264 98.6797C178.191 98.7545 178.15 98.856 178.15 98.9618V157.106C178.15 157.214 178.193 157.318 178.269 157.394C178.345 157.471 178.449 157.514 178.557 157.514C187.524 157.49 196.482 157.49 205.431 157.514C216.551 157.549 225.767 154.136 231.96 144.686Z" fill="#FFB034"/>
<path d="M50.0431 137.834C55.4603 137.834 59.8517 133.44 59.8517 128.02C59.8517 122.601 55.4603 118.207 50.0431 118.207C44.6259 118.207 40.2344 122.601 40.2344 128.02C40.2344 133.44 44.6259 137.834 50.0431 137.834Z" fill="#FFB034"/>
<path d="M89.4638 137.834C94.881 137.834 99.2725 133.44 99.2725 128.02C99.2725 122.601 94.881 118.207 89.4638 118.207C84.0467 118.207 79.6552 122.601 79.6552 128.02C79.6552 133.44 84.0467 137.834 89.4638 137.834Z" fill="#FFB034"/>
<path d="M128.876 137.843C134.293 137.843 138.684 133.449 138.684 128.029C138.684 122.61 134.293 118.216 128.876 118.216C123.459 118.216 119.067 122.61 119.067 128.029C119.067 133.449 123.459 137.843 128.876 137.843Z" fill="#FFB034"/>
</svg>
